:FULLY-SPECIFIED
:FORCE-ALL-JOINTS-BE-3DOF
:DEGREES
408
root 7.33458 13.7654 -34.1753 157.701 75.1918 151.177
lfemur 20.2583 -2.09088 -10.4887
ltibia 21.1166 0 0
lfoot -23.3509 33.7415 0
ltoes -26.5034 0 0
rfemur -67.0981 -17.0054 8.49721
rtibia 80.8128 0 0
rfoot -15.1793 13.7045 0
rtoes 11.1393 0 0
lowerback 8.03548 5.09603 -12.0643
upperback -2.72407 5.40331 -1.43835
thorax -8.4625 3.21677 4.29993
lowerneck 0.368522 -11.5715 -11.3091
upperneck 3.39194 -15.7156 8.99048
head 2.53653 -7.85039 3.92399
lclavicle -4.42072e-14 -3.81142e-16 0
lhumerus -71.0676 -18.641 106.628
lradius 100.282 0 0
lwrist 51.4775 0 0
lhand -10.1503 42.9532 0
lfingers 7.12502 0 0
lthumb 15.8391 72.3274 0
rclavicle -4.42072e-14 -3.81142e-16 0
rhumerus 50.3266 -4.38002 -60.7495
rradius 17.4097 0 0
rwrist 22.1513 0 0
rhand -22.855 -32.5461 0
rfingers 7.12502 0 0
rthumb 3.58505 -62.5395 0
409
root 7.28676 13.7721 -34.2018 158.14 75.2017 151.716
lfemur 19.7784 -2.2478 -10.4338
ltibia 21.924 0 0
lfoot -23.3619 33.5615 0
ltoes -26.5821 0 0
rfemur -66.8453 -16.8024 8.43223
rtibia 80.3228 0 0
rfoot -14.8723 13.5454 0
rtoes 10.8626 0 0
lowerback 8.15027 5.02949 -11.9519
upperback -2.67855 5.3281 -1.35531
thorax -8.46354 3.17604 4.34031
lowerneck 0.416514 -11.5819 -11.3211
upperneck 3.34802 -15.7333 9.06189
head 2.52891 -7.86156 3.9497
lclavicle -4.36828e-14 -1.49871e-15 0
lhumerus -70.7922 -19.0426 106.596
lradius 100.275 0 0
lwrist 51.3651 0 0
lhand -10.0661 42.9391 0
lfingers 7.12502 0 0
lthumb 15.9201 72.3057 0
rclavicle -4.36828e-14 -1.49871e-15 0
rhumerus 49.9851 -4.18482 -60.3868
rradius 18.2122 0 0
rwrist 20.9907 0 0
rhand -22.4847 -32.7184 0
rfingers 7.12502 0 0
rthumb 3.942 -62.6914 0
410
root 7.2373 13.7786 -34.2291 158.67 75.2 152.348
lfemur 19.2464 -2.4334 -10.3648
ltibia 22.8154 0 0
lfoot -23.3651 33.3708 0
ltoes -26.6679 0 0
rfemur -66.5862 -16.5941 8.3692
rtibia 79.8255 0 0
rfoot -14.5666 13.3798 0
rtoes 10.5364 0 0
lowerback 8.27478 4.96097 -11.8287
upperback -2.62779 5.25157 -1.26779
thorax -8.46389 3.13407 4.37933
lowerneck 0.478056 -11.6028 -11.3404
upperneck 3.29122 -15.7664 9.15339
head 2.51835 -7.88052 3.98238
lclavicle -4.2907e-14 -2.56576e-15 0
lhumerus -70.5096 -19.4801 106.54
lradius 100.274 0 0
lwrist 51.2386 0 0
lhand -9.96578 42.9268 0
lfingers 7.12502 0 0
lthumb 16.0167 72.285 0
rclavicle -4.2907e-14 -2.56576e-15 0
rhumerus 49.6197 -3.99797 -59.9774
rradius 19.0674 0 0
rwrist 19.7293 0 0
rhand -22.0923 -32.916 0
rfingers 7.12502 0 0
rthumb 4.32033 -62.867 0
411
root 7.1863 13.7847 -34.2571 159.297 75.1858 153.078
lfemur 18.6608 -2.64898 -10.2808
ltibia 23.7931 0 0
lfoot -23.3599 33.1691 0
ltoes -26.7615 0 0
rfemur -66.3214 -16.3813 8.30861
rtibia 79.3225 0 0
rfoot -14.2636 13.2081 0
rtoes 10.1582 0 0
lowerback 8.40914 4.89058 -11.6943
upperback -2.57162 5.17394 -1.17575
thorax -8.46346 3.09095 4.41678
lowerneck 0.553975 -11.6349 -11.3675
upperneck 3.2208 -15.8159 9.26617
head 2.50468 -7.9078 4.02246
lclavicle -4.1869e-14 -3.57812e-15 0
lhumerus -70.2204 -19.9544 106.459
lradius 100.279 0 0
lwrist 51.0973 0 0
lhand -9.84827 42.9166 0
lfingers 7.12502 0 0
lthumb 16.1298 72.2654 0
rclavicle -4.1869e-14 -3.57812e-15 0
rhumerus 49.2299 -3.82067 -59.519
rradius 19.9761 0 0
rwrist 18.3642 0 0
rhand -21.6774 -33.1399 0
rfingers 7.12502 0 0
rthumb 4.72027 -63.0674 0
412
root 7.13856 13.7903 -34.2818 159.87 75.1845 153.763
lfemur 18.0694 -2.90767 -10.1747
ltibia 24.8182 0 0
lfoot -23.3464 32.959 0
ltoes -26.8741 0 0
rfemur -66.0721 -16.1671 8.24243
rtibia 78.8019 0 0
rfoot -13.9552 13.0524 0
rtoes 9.73842 0 0
lowerback 8.54948 4.82169 -11.5542
upperback -2.51159 5.09875 -1.08325
thorax -8.46248 3.0486 4.45058
lowerneck 0.634921 -11.6713 -11.3956
upperneck 3.14376 -15.8712 9.38551
head 2.48857 -7.93788 4.06479
lclavicle -4.05956e-14 -4.51478e-15 0
lhumerus -69.9662 -20.4336 106.371
lradius 100.299 0 0
lwrist 50.9623 0 0
lhand -9.72636 42.9084 0
lfingers 7.12502 0 0
lthumb 16.2472 72.2476 0
rclavicle -4.05956e-14 -4.51478e-15 0
rhumerus 48.8065 -3.66883 -59.0512
rradius 20.8781 0 0
rwrist 16.9489 0 0
rhand -21.2622 -33.3932 0
rfingers 7.12502 0 0
rthumb 5.12063 -63.298 0
413
root 7.09837 13.7952 -34.2994 160.247 75.2202 154.265
lfemur 17.5188 -3.21904 -10.0412
ltibia 25.8498 0 0
lfoot -23.3255 32.7434 0
ltoes -27.0145 0 0
rfemur -65.857 -15.9543 8.16292
rtibia 78.2519 0 0
rfoot -13.6327 12.9331 0
rtoes 9.29048 0 0
lowerback 8.69182 4.75736 -11.4142
upperback -2.44946 5.02914 -0.9942
thorax -8.46126 3.00876 4.47904
lowerneck 0.711224 -11.7048 -11.4178
upperneck 3.0675 -15.9216 9.49637
head 2.47089 -7.96508 4.1041
lclavicle -3.9127e-14 -5.35973e-15 0
lhumerus -69.7843 -20.8869 106.295
lradius 100.342 0 0
lwrist 50.8536 0 0
lhand -9.61327 42.9017 0
lfingers 7.12502 0 0
lthumb 16.3561 72.2321 0
rclavicle -3.9127e-14 -5.35973e-15 0
rhumerus 48.3428 -3.55562 -58.6134
rradius 21.7162 0 0
rwrist 15.539 0 0
rhand -20.8678 -33.6769 0
rfingers 7.12502 0 0
rthumb 5.50103 -63.5618 0
414
root 7.06509 13.7994 -34.3104 160.442 75.2897 154.599
lfemur 17.0054 -3.57909 -9.8826
ltibia 26.8878 0 0
lfoot -23.2976 32.5229 0
ltoes -27.1802 0 0
rfemur -65.6735 -15.7425 8.07105
rtibia 77.6746 0 0
rfoot -13.2969 12.8474 0
rtoes 8.81648 0 0
lowerback 8.83611 4.69725 -11.2741
upperback -2.38536 4.96468 -0.908373
thorax -8.45982 2.97124 4.50255
lowerneck 0.783235 -11.7357 -11.4344
upperneck 2.9919 -15.9673 9.59944
head 2.45174 -7.98965 4.14064
lclavicle -3.74731e-14 -6.11627e-15 0
lhumerus -69.6691 -21.3164 106.231
lradius 100.405 0 0
lwrist 50.7692 0 0
lhand -9.50854 42.8966 0
lfingers 7.12502 0 0
lthumb 16.4569 72.2188 0
rclavicle -3.74731e-14 -6.11627e-15 0
rhumerus 47.842 -3.47822 -58.2034
rradius 22.4955 0 0
rwrist 14.1346 0 0
rhand -20.4928 -33.9885 0
rfingers 7.12502 0 0
rthumb 5.86293 -63.8563 0
415
root 7.0381 13.8032 -34.3153 160.472 75.3902 154.779
lfemur 16.5255 -3.98382 -9.70106
ltibia 27.9321 0 0
lfoot -23.2633 32.2978 0
ltoes -27.3683 0 0
rfemur -65.5186 -15.5316 7.96778
rtibia 77.0719 0 0
rfoot -12.9487 12.7926 0
rtoes 8.31851 0 0
lowerback 8.98231 4.64103 -11.134
upperback -2.31941 4.90493 -0.825532
thorax -8.45823 2.93585 4.52148
lowerneck 0.851305 -11.7642 -11.4459
upperneck 2.91684 -16.0089 9.6954
head 2.43125 -8.01184 4.17463
lclavicle -3.56437e-14 -6.7877e-15 0
lhumerus -69.6147 -21.7243 106.177
lradius 100.488 0 0
lwrist 50.707 0 0
lhand -9.41172 42.8928 0
lfingers 7.12502 0 0
lthumb 16.5502 72.2075 0
rclavicle -3.56437e-14 -6.7877e-15 0
rhumerus 47.3074 -3.43378 -57.819
rradius 23.2208 0 0
rwrist 12.7355 0 0
rhand -20.1355 -34.3258 0
rfingers 7.12502 0 0
rthumb 6.20779 -64.179 0
416
root 7.01676 13.8064 -34.3147 160.351 75.5185 154.82
lfemur 16.0758 -4.42924 -9.49876
ltibia 28.9826 0 0
lfoot -23.2233 32.0688 0
ltoes -27.5764 0 0
rfemur -65.3898 -15.3212 7.85406
rtibia 76.446 0 0
rfoot -12.589 12.7658 0
rtoes 7.79869 0 0
lowerback 9.13037 4.58834 -10.994
upperback -2.25175 4.84946 -0.745443
thorax -8.45651 2.90238 4.5362
lowerneck 0.915785 -11.7906 -11.4529
upperneck 2.8422 -16.0468 9.78494
head 2.40952 -8.03188 4.20633
lclavicle -3.36487e-14 -7.37733e-15 0
lhumerus -69.6155 -22.1127 106.132
lradius 100.587 0 0
lwrist 50.665 0 0
lhand -9.32234 42.8902 0
lfingers 7.12502 0 0
lthumb 16.6362 72.198 0
rclavicle -3.36487e-14 -7.37733e-15 0
rhumerus 46.7422 -3.41945 -57.458
rradius 23.8972 0 0
rwrist 11.3419 0 0
rhand -19.7946 -34.6865 0
rfingers 7.12502 0 0
rthumb 6.53707 -64.5273 0
417
root 7.00044 13.8092 -34.3091 160.096 75.6717 154.737
lfemur 15.6524 -4.91134 -9.2779
ltibia 30.0391 0 0
lfoot -23.1779 31.8363 0
ltoes -27.8017 0 0
rfemur -65.284 -15.1112 7.73087
rtibia 75.7988 0 0
rfoot -12.2186 12.7644 0
rtoes 7.2591 0 0
lowerback 9.28024 4.53886 -10.8539
upperback -2.1825 4.79785 -0.667872
thorax -8.45472 2.87065 4.5471
lowerneck 0.977026 -11.8151 -11.4556
upperneck 2.76788 -16.0814 9.86874
head 2.38666 -8.05003 4.23595
lclavicle -3.14979e-14 -7.88845e-15 0
lhumerus -69.6657 -22.4839 106.096
lradius 100.702 0 0
lwrist 50.6411 0 0
lhand -9.23995 42.8887 0
lfingers 7.12502 0 0
lthumb 16.7156 72.1901 0
rclavicle -3.14979e-14 -7.88845e-15 0
rhumerus 46.1498 -3.43239 -57.1183
rradius 24.5297 0 0
rwrist 9.95357 0 0
rhand -19.4684 -35.0683 0
rfingers 7.12502 0 0
rthumb 6.85224 -64.8987 0
418
root 6.98851 13.8117 -34.2991 159.721 75.8467 154.543
lfemur 15.2519 -5.42613 -9.04065
ltibia 31.1016 0 0
lfoot -23.1278 31.6008 0
ltoes -28.0416 0 0
rfemur -65.1986 -14.9013 7.59916
rtibia 75.1325 0 0
rfoot -11.8384 12.7855 0
rtoes 6.70184 0 0
lowerback 9.43187 4.49224 -10.714
upperback -2.11181 4.74966 -0.592584
thorax -8.45289 2.84046 4.55455
lowerneck 1.03538 -11.838 -11.4545
upperneck 2.69375 -16.1131 9.94749
head 2.3628 -8.06653 4.26375
lclavicle -2.92011e-14 -8.32438e-15 0
lhumerus -69.7597 -22.84 106.068
lradius 100.831 0 0
lwrist 50.6333 0 0
lhand -9.16408 42.8881 0
lfingers 7.12502 0 0
lthumb 16.7886 72.1837 0
rclavicle -2.92011e-14 -8.32438e-15 0
rhumerus 45.5333 -3.46976 -56.7975
rradius 25.1232 0 0
rwrist 8.57057 0 0
rhand -19.1554 -35.4689 0
rfingers 7.12502 0 0
rthumb 7.15474 -65.2907 0
419
root 6.98033 13.8139 -34.2851 159.242 76.0406 154.253
lfemur 14.8707 -5.96961 -8.78919
ltibia 32.1698 0 0
lfoot -23.0735 31.3628 0
ltoes -28.2935 0 0
rfemur -65.1307 -14.6913 7.45989
rtibia 74.449 0 0
rfoot -11.4492 12.8264 0
rtoes 6.12903 0 0
lowerback 9.58521 4.44814 -10.574
upperback -2.03979 4.70446 -0.519346
thorax -8.45107 2.81161 4.55893
lowerneck 1.0912 -11.8596 -11.4501
upperneck 2.6197 -16.1425 10.0219
head 2.33804 -8.08163 4.28994
lclavicle -2.67682e-14 -8.68841e-15 0
lhumerus -69.8916 -23.1832 106.046
lradius 100.972 0 0
lwrist 50.6394 0 0
lhand -9.09428 42.8883 0
lfingers 7.12502 0 0
lthumb 16.8558 72.1785 0
rclavicle -2.67682e-14 -8.68841e-15 0
rhumerus 44.8961 -3.52872 -56.4935
rradius 25.6827 0 0
rwrist 7.19285 0 0
rhand -18.8541 -35.8859 0
rfingers 7.12502 0 0
rthumb 7.44605 -65.7007 0
420
root 6.97529 13.8158 -34.2677 158.675 76.2503 153.881
lfemur 14.5052 -6.53779 -8.52573
ltibia 33.2438 0 0
lfoot -23.0156 31.1229 0
ltoes -28.5546 0 0
rfemur -65.0777 -14.4809 7.31403
rtibia 73.7505 0 0
rfoot -11.052 12.8843 0
rtoes 5.54274 0 0
lowerback 9.74022 4.40621 -10.4342
upperback -1.96658 4.66182 -0.447922
thorax -8.4493 2.78392 4.56061
lowerneck 1.14483 -11.8801 -11.4429
upperneck 2.54561 -16.1699 10.0926
head 2.3125 -8.09558 4.31479
lclavicle -2.42091e-14 -8.98386e-15 0
lhumerus -70.0559 -23.5157 106.029
lradius 101.123 0 0
lwrist 50.6575 0 0
lhand -9.03008 42.8892 0
lfingers 7.12502 0 0
lthumb 16.9177 72.1745 0
rclavicle -2.42091e-14 -8.98386e-15 0
rhumerus 44.2415 -3.60642 -56.2041
rradius 26.2133 0 0
rwrist 5.82038 0 0
rhand -18.563 -36.3172 0
rfingers 7.12502 0 0
rthumb 7.72762 -66.1262 0
421
root 6.97274 13.8177 -34.2474 158.035 76.4728 153.442
lfemur 14.1518 -7.12666 -8.25243
ltibia 34.3233 0 0
lfoot -22.9546 30.8815 0
ltoes -28.8224 0 0
rfemur -65.0365 -14.27 7.16254
rtibia 73.0389 0 0
rfoot -10.6476 12.9564 0
rtoes 4.94509 0 0
lowerback 9.89685 4.36612 -10.2944
upperback -1.89231 4.6213 -0.37808
thorax -8.44762 2.75717 4.55998
lowerneck 1.19663 -11.8998 -11.4332
upperneck 2.47136 -16.1957 10.1603
head 2.28628 -8.10861 4.3385
lclavicle -2.15335e-14 -9.21401e-15 0
lhumerus -70.2467 -23.8396 106.017
lradius 101.282 0 0
lwrist 50.6855 0 0
lhand -8.97104 42.8906 0
lfingers 7.12502 0 0
lthumb 16.9745 72.1714 0
rclavicle -2.15335e-14 -9.21401e-15 0
rhumerus 43.5726 -3.70003 -55.927
rradius 26.7199 0 0
rwrist 4.45314 0 0
rhand -18.2805 -36.7603 0
rfingers 7.12502 0 0
rthumb 8.00091 -66.5647 0
